<?xml version="1.0" encoding="utf-8"?>
<!-- Generator: Adobe Illustrator 23.0.2, SVG Export Plug-In . SVG Version: 6.00 Build 0)  -->
<svg version="1.1" id="Layer_1" xmlns="http://www.w3.org/2000/svg" xmlns:xlink="http://www.w3.org/1999/xlink" x="0px" y="0px"
	 viewBox="0 0 300 130" style="enable-background:new 0 0 300 130;" xml:space="preserve">
<style type="text/css">
	.st0{fill:#F4A698;}
	.st1{fill:#352561;}
</style>
<path class="st0" d="M164.44,113.72l9.27-19.66l9.5,19.66h-3.42l-1.78-3.71h-10.43l-1.75,3.71H164.44z M168.05,108.99h9.44
	l-4.78-9.88L168.05,108.99z"/>
<path class="st0" d="M201.16,108.69c0,2.04-1.58,5.43-6.47,5.43c-3.87,0-6.36-1.59-6.95-5.61h0.93c0.62,3.68,3.84,4.49,5.71,4.49
	c3.31,0,4.1-2.2,4.1-3.17c0-2.07-1.78-3.2-5.17-4.86c-2.15-1.05-5.79-2.77-5.79-6.12c0-4.27,4.44-5.13,6.02-5.13
	c3.96,0,5.6,1.99,6.16,4.81h-1.02c-0.42-1.48-1.55-3.71-5.12-3.71c-1.75,0-3.62,1.34-3.62,3.04c0,1.99,2.51,3.25,5.12,4.51
	C199.97,104.69,201.16,106.36,201.16,108.69"/>
<path class="st0" d="M210.52,94.05v19.66h-2.83V96.79c0-1.16-0.76-2.15-2.51-2.61v-0.14H210.52z"/>
<path class="st0" d="M216.17,113.72l9.27-19.66l9.5,19.66h-3.42l-1.78-3.71h-10.43l-1.75,3.71H216.17z M219.79,108.99h9.44
	l-4.77-9.88L219.79,108.99z"/>
<path class="st1" d="M154.66,5.74c1.06-1.02,2.05-2.14,2.87-3.37c-0.41,0.32-1.56,0.99-3.08,1.75c-1.03,0.51-1.88,0.98-2.37,1.25
	c-0.08,0.8-0.21,1.83-0.35,2.85C152.74,7.44,153.73,6.63,154.66,5.74"/>
<path class="st1" d="M154.03,17.6c0.18-0.7,0.43-1.38,0.75-2.03c0.54-1.13,1.3-2.13,1.97-3.15c0.7-1.01,1.33-2.06,1.92-3.13
	c0.3-0.54,0.58-1.08,0.83-1.64c0.19-0.41,0.36-0.83,0.51-1.26c-1.2,0.75-4.77,3.1-6.86,5.46l0.01,0.02
	C153.17,11.89,153.95,14.11,154.03,17.6"/>
<path class="st1" d="M157.01,8.43c-1.34,0.99-2.8,2.2-3.86,3.41l0.01,0.02c0,0.01,0.09,0.25,0.21,0.69L157.01,8.43z"/>
<path class="st1" d="M151.87,0.16L151.87,0.16c0,0,0-0.01,0-0.01C151.87,0.15,151.87,0.16,151.87,0.16"/>
<path class="st1" d="M211.02,82.28c-0.11,0.25-0.6,1.04-1.55,1.94c-1.66,1.58-4.72,3.51-9.7,3.51c-8.42,0-13.33-6.1-13.33-13.64
	s4.91-13.67,13.33-13.67c8,0,10.99,4.99,11.29,5.49l-0.91,0.9c-8.65-9.91-18.96-3.23-18.96,7.28c0,8.79,8.46,15.72,16.43,9.65v-9.08
	h3.4V82.28z"/>
<path class="st1" d="M234.94,85.87v1.37h-17.41V64.62c0-1.54-1.06-2.87-3.36-3.48v-0.18h20.77v1.36h-13.25v10.41h11.07v1.61h-11.07
	v11.52H234.94z"/>
<path class="st1" d="M161.41,87.23l12.38-26.27l12.69,26.27h-4.57l-2.38-4.95H165.6l-2.34,4.95H161.41z M166.24,80.92h12.61
	l-6.38-13.21L166.24,80.92z"/>
<path class="st1" d="M148.96,126.03c-0.97-2.92-2.5-7.76-3.9-12.3c-0.77-2.33-1.52-4.79-2.23-7.35c-0.01-0.04-0.02-0.08-0.03-0.12
	l0,0c-1.24-4.5-2.35-9.34-3.22-14.43h-3.78c0.43,2.1,0.9,4.14,1.41,6.12c1.59,6.21,3.55,12.05,5.58,17.31
	c2.48,6.19,5.41,12.14,6.97,14.5C150.32,130.12,150.52,130.72,148.96,126.03"/>
<path class="st1" d="M80.93,87.05v0.18h-5.33c-1.21-0.07-2.19-1.01-2.19-2.15V74.56h-13.9v12.67h-4.15V64.59
	c0-1.51-1.02-2.87-2.57-3.27c-0.04,0-0.07-0.04-0.11-0.04L52,61.14v-0.18h5.25c0.64,0,1.21,0.21,1.62,0.61
	c0.38,0.39,0.64,0.93,0.64,1.54V73.2h13.9V60.96h4.15v22.61c0,1.51,1.06,2.87,2.6,3.3h0.08L80.93,87.05z"/>
<path class="st1" d="M102.85,85.87v1.37H85.44V64.62c0-1.54-1.06-2.87-3.36-3.48v-0.18h20.77v1.36H89.59v10.41h11.07v1.61H89.59
	v11.52H102.85z"/>
<path class="st1" d="M130.17,87.23h-4.68l-8.8-11.84c-1.13,0.04-2.19,0.04-3.1,0.04v11.81h-4.15V64.66c0-1.65-1.24-3.26-3.36-3.51
	v-0.18h7.51c4.34,0,13.1-0.11,13.1,7.36c0,4.2-2.68,5.99-5.74,6.75L130.17,87.23z M120.92,72.52c0.26-0.29,0.53-0.65,0.68-1.01
	c0.23-0.43,0.38-0.9,0.49-1.37c0.11-0.57,0.15-1.22,0.15-1.83c-0.19-5.71-4.83-6.1-5.67-6.1h-2.98v11.81h2.98
	c0.49,0,0.98-0.04,1.47-0.11c0.72-0.11,1.44-0.32,2.04-0.68C120.39,73.02,120.66,72.81,120.92,72.52"/>
<path class="st1" d="M137.61,66.65v-5.69h-1.51h-5.83v0.18c1.55,0.43,2.48,1.2,2.91,2.16c0.13,0.41,0.23,1.21,0.23,3.03
	c0,0.13,0.01,0.23,0.01,0.32c-0.13,7.27,0.47,14.18,1.53,20.58h0.43h3.76C138.08,80.83,137.47,73.92,137.61,66.65"/>
<path class="st1" d="M142.02,60.96c0,0.03,0,0.07-0.01,0.1v1.51h9.14v24.66h4.15V62.58h9.14v-1.61H142.02z"/>
<path class="st1" d="M135.59,31.4c-0.65-1.74-0.82-3.61-0.84-5.45c0.03-3.68,0.7-7.36,2.06-10.8c1.38-3.42,3.46-6.56,6.1-9.14
	c2.58-2.51,5.61-4.57,8.96-5.88c0,0,0,0,0,0c-3.47,0.9-15.94,5.12-18.49,19.53c-1.04,5.89-0.39,10.29,1.94,13.07
	c0.75,0.9,1.6,1.52,2.42,1.96C136.77,33.8,136.03,32.65,135.59,31.4"/>
<path class="st1" d="M153.57,10.46c0.73-0.78,1.34-1.66,1.91-2.57c0.56-0.91,1.02-1.89,1.39-2.9c0.31-0.85,0.55-1.72,0.68-2.62
	c-0.77,1.27-1.63,2.51-2.65,3.59c-0.98,1.03-2.15,1.89-3.24,2.8c-0.18,1.2-0.37,2.32-0.51,2.96c0.54-0.06,0.97-0.08,1.27-0.09
	C152.82,11.27,153.21,10.88,153.57,10.46"/>
<path class="st1" d="M157.59,2.32C157.59,2.32,157.58,2.32,157.59,2.32l-0.01,0.01c-0.09,0.92-0.21,1.9-0.48,2.78
	c-0.33,1.03-0.74,2.05-1.27,3c-0.2,0.36-0.49,0.64-0.71,0.99c1.07-0.88,2.16-1.68,3.06-2.29C158.27,5.21,157.59,2.32,157.59,2.32"/>
<path class="st1" d="M130.78,7.42c0.55,0.19,1.09,0.41,1.56,0.76c0.55,0.4,1.06,0.87,1.45,1.43c0.4,0.55,0.74,1.15,1,1.78
	c0.13,0.32,0.25,0.65,0.35,0.98c0.25-0.5,0.52-0.98,0.8-1.44c-2.23-3.95-5.42-3.6-5.42-3.6h0c0,0,0,0,0.01,0
	C130.53,7.33,130.63,7.36,130.78,7.42"/>
<path class="st1" d="M134.84,33.14c-1.35-1.6-2.15-3.71-2.44-6.28c-0.37-0.78-0.68-1.59-0.9-2.42c-0.54-1.97-0.57-4.05-0.24-6.04
	c0.36-1.99,1.06-3.88,1.29-5.86c0.12-0.98,0.12-2-0.19-2.95c-0.3-0.95-0.99-1.75-1.85-2.27h0c0,0,0,0,0,0c0,0,1.54,1.25,0.32,5.96
	c-1.23,4.71-2.01,8.81-0.43,13.65c0.94,2.87,2.68,6.32,6.47,7.99C136.18,34.48,135.48,33.9,134.84,33.14"/>
<path class="st1" d="M132.91,11.94c-0.02,0.42-0.05,0.7-0.09,1.06c-0.23,2.07-0.78,3.65-0.96,4.82c-0.2,1.32-0.71,3.26,0.43,6.96
	c-0.01-1.6,0.13-3.34,0.47-5.24c0.43-2.43,1.14-4.57,2.03-6.47c-0.69-3.44-2.47-4.87-3.5-5.42c-0.24-0.11-0.48-0.21-0.72-0.31
	c-0.01-0.01-0.03-0.01-0.04-0.02C130.52,7.33,133.05,8.52,132.91,11.94"/>
<path class="st1" d="M151.84,0.21c-1.11,1.18-2.16,2.24-3.19,3.42c-1.17,1.36-2.24,2.79-3.23,4.27c-1,1.48-1.84,3.06-2.58,4.67
	c-0.55,1.18-1.07,2.37-1.43,3.61c3.12-2.98,6.74-4.02,9.06-4.37c0.3-1.18,1-5.93,1.04-7.45c0.04-1.2,0.25-3.24,0.35-4.18
	c0,0,0,0-0.01,0.01c-0.36,1.71-0.95,3.35-1.56,4.97c-0.67,1.63-1.36,3.25-2.21,4.79c0.6-1.66,1.19-3.32,1.82-4.96
	C150.55,3.4,151.23,1.83,151.84,0.21"/>
<path class="st1" d="M136.86,23.54c0.93-2.72,2.21-4.81,3.66-6.43c0.48-1.64,1.04-3.26,1.81-4.78c0.8-1.62,1.7-3.18,2.75-4.65
	c1.03-1.47,2.16-2.88,3.37-4.2c1.07-1.17,2.21-2.28,3.41-3.31c0-0.01,0.01-0.02,0.01-0.03c-1.61,0.69-3.03,1.71-4.46,2.71
	c-1.5,1.04-2.9,2.22-4.18,3.52c-2.56,2.59-4.61,5.68-5.94,9.07c-0.68,1.68-1.19,3.44-1.55,5.22c-0.34,1.79-0.53,3.61-0.58,5.42
	c-0.03,1.81,0.11,3.66,0.71,5.37c0.41,1.29,1.09,2.4,2.09,3.33c0.23,0.12,0.41,0.19,0.63,0.28
	C135.82,32.01,135.26,28.23,136.86,23.54"/>
<path class="st1" d="M139.32,29.48c0.16-2.57,1.09-5.03,2.33-7.25c1.25-2.22,2.76-4.32,4.65-6.05c1.84-1.7,4-3.05,6.33-3.92
	c0-0.01,0,0,0,0c-1.57,0-11.4,0.47-15.17,11.48c-1.7,4.97-0.92,8.71,2.45,11.78c0,0,0.48,0.39,1.15,0.59
	C139.74,34.21,139.15,31.81,139.32,29.48"/>
<path class="st1" d="M144.83,33.8c1.45-0.42,3-0.22,4.4,0.24c1.41,0.48,2.68,1.38,3.6,2.54c0.67,0.86,1.19,1.9,1.51,2.93
	c0.19-1.55,0.29-6.24-5.34-7.52c-2.15-0.48-3.89-0.27-5.18,0.64c-1.53,1.08-1.99,2.84-2.1,3.41C142.46,35,143.58,34.16,144.83,33.8"
	/>
<path class="st1" d="M152.77,39.02c-0.57-0.09-1.16-0.02-1.74,0.08c-1.17,0.2-2.38,0.37-3.59,0.3c-1.21-0.07-2.44-0.36-3.49-0.99
	c-0.89-0.54-1.66-1.27-2.22-2.13c0.21,0.68,1.28,3.58,4.33,4.12c1.88,0.33,3.69-0.05,5.28-0.39c1.15-0.24,2.16-0.46,2.94-0.32
	c0,0,0,0,0-0.01C153.82,39.36,153.31,39.09,152.77,39.02"/>
<path class="st1" d="M144.1,38.09c1.04,0.54,2.18,0.82,3.35,0.86c1.17,0.09,2.34-0.07,3.53-0.21c0.6-0.06,1.22-0.1,1.82,0.04
	c0.56,0.14,1.05,0.49,1.46,0.87c-0.41-1.02-0.97-1.98-1.68-2.8c-0.93-1.08-2.13-1.92-3.49-2.35c-1.34-0.47-2.8-0.65-4.19-0.32
	c-1.23,0.29-2.36,1-3.19,1.99C142.38,36.98,143.2,37.61,144.1,38.09"/>
<path class="st1" d="M152.31,17.32c-0.27,1.73-0.71,3.43-1.26,5.09c-0.57,1.66-1.26,3.27-2.13,4.79c-0.76,1.41-1.71,2.71-2.72,3.95
	c0.89-0.09,1.88-0.02,2.96,0.23c0.18,0.04,0.35,0.09,0.52,0.13c5.49-9.39,3.46-17.59,2.99-19.16
	C152.71,14.01,152.57,15.67,152.31,17.32"/>
<path class="st1" d="M160.13,13.08c-0.21,2.42-0.67,4.82-1.33,7.16c-0.67,2.34-1.65,4.59-2.86,6.69c-1.12,2.03-2.64,3.79-4.25,5.42
	c0.55,0.32,1.02,0.69,1.41,1.08c1.52-1.12,12.9-10.23,6.99-27.09C160.33,8.58,160.32,10.84,160.13,13.08"/>
<path class="st1" d="M141.19,36.65c-1.41-0.43-2.47-0.85-3.18-1.16c-0.13,0.38-0.3,0.91-0.3,0.91c-2.24,6.81-3.66,13.5-4.41,19.96
	h4.41c0.75-6.1,2.05-12.3,4.02-18.51C141.46,37.36,141.29,36.93,141.19,36.65"/>
<path class="st1" d="M160.07,6.37c-0.22,1.06-0.56,2.14-1.01,3.12c-0.54,1.12-1.18,2.18-1.86,3.22c-0.71,1.02-1.45,2-2.03,3.07
	c-0.42,0.76-0.85,1.5-1.12,2.33c0,1.62-0.15,3.49-0.59,5.52c1.03-1.21,1.88-2.6,2.53-4.07c-0.31,0.97-0.72,1.92-1.2,2.83
	c-0.46,0.88-1.01,1.72-1.65,2.5c-0.58,2.14-1.48,4.44-2.85,6.82c0.52,0.18,0.98,0.4,1.39,0.63l0.88-1.13l0.59-0.69l0.52-0.74
	l1.04-1.48l0.9-1.56c1.14-2.11,2.11-4.33,2.74-6.65c0.69-2.3,1.14-4.67,1.41-7.07c0.13-1.2,0.23-2.4,0.26-3.61
	C160.06,8.39,160.12,7.39,160.07,6.37"/>
<path class="st1" d="M146.63,16.53c-1.81,1.74-3.31,3.79-4.57,5.97c-1.23,2.18-2.17,4.57-2.39,7.08c-0.2,2.27,0.18,4.56,1.41,6.52
	c0.06-0.42,0.48-2.64,2.39-3.98c0.76-0.54,1.66-0.85,2.68-0.96c0.9-1.33,1.73-2.66,2.43-4.09c0.41-0.76,0.75-1.56,1.12-2.34
	c0.31-0.81,0.65-1.6,0.91-2.43c0.58-1.63,1.01-3.31,1.34-5.01c0.32-1.63,0.6-3.29,0.69-4.96C150.39,13.36,148.41,14.84,146.63,16.53
	 M146.58,22.47c-0.41,0.79-0.8,1.59-1.15,2.41c-0.72,1.63-1.33,3.3-1.92,5.01c0.1-1.82,0.62-3.59,1.34-5.26
	c0.37-0.83,0.79-1.64,1.3-2.4c0.48-0.77,1.09-1.47,1.72-2.11C147.43,20.9,146.98,21.67,146.58,22.47"/>
</svg>
